# xmcd CD database file
#
# Track frame offsets:
#	150
#	7326
#	18542
#	28706
#	43152
#	53994
#	66494
#	77760
#	90251
#	100455
#	107146
#	118515
#	129500
#	138846
#	149585
#	160572
#
# Disc length: 2278 seconds
#
# Revision: 0
# Processed by: cddbd v1.5.2PL0 Copyright (c) Steve Scherf et al.
# Submitted via: CDex 1.51
#
DISCID=de08e410
DTITLE=Xavier Cougat - Encore
DYEAR=2006
DGENRE=Merengue
TTITLE0=Oye Negra
TTITLE1=La Negra Leoner
TTITLE2=Walter Winchel Rhumba
TTITLE3=Amor
TTITLE4=Rhumba Rhumba
TTITLE5=Temptation
TTITLE6=Minsang Lamang (Promise to remember)
TTITLE7=Besame Mucho
TTITLE8=Dark Eyes ( Ojos Negros)
TTITLE9=The Continental
TTITLE10=Bruca Maniqua
TTITLE11=Jarabe Tapatio
TTITLE12=Ali Baba
TTITLE13=Etude For Latins
TTITLE14=Brazil
TTITLE15=Rain in Spain
EXTD=YEAR: 2006
EXTT0=
EXTT1=
EXTT2=
EXTT3=
EXTT4=
EXTT5=
EXTT6=
EXTT7=
EXTT8=
EXTT9=
EXTT10=
EXTT11=
EXTT12=
EXTT13=
EXTT14=
EXTT15=
PLAYORDER=
